<?xml version="1.0" encoding="UTF-8"?>
<!DOCTYPE svg PUBLIC "-//W3C//DTD SVG 1.1//EN" "http://www.w3.org/Graphics/SVG/1.1/DTD/svg11.dtd">
<!-- Creator: CorelDRAW 2019 (64-Bit) -->
<svg xmlns="http://www.w3.org/2000/svg" xml:space="preserve" width="9.99999in" height="6.66666in" version="1.1" style="shape-rendering:geometricPrecision; text-rendering:geometricPrecision; image-rendering:optimizeQuality; fill-rule:evenodd; clip-rule:evenodd"
viewBox="0 0 9999.99 6666.66"
 xmlns:xlink="http://www.w3.org/1999/xlink"
 xmlns:xodm="http://www.corel.com/coreldraw/odm/2003">
 <defs>
  <style type="text/css">
   <![CDATA[
    .fil0 {fill:#D9DADA}
    .fil1 {fill:#FEFEFE;fill-rule:nonzero}
   ]]>
  </style>
 </defs>
 <g id="Layer_x0020_1">
  <metadata id="CorelCorpID_0Corel-Layer"/>
  <rect class="fil0" x="-0.01" y="-0" width="10000" height="6666.67"/>
  <path class="fil1" d="M5959.96 2145.44l0 1946.19c0,105.31 -42.84,200.8 -112,269.96 -69.16,69.16 -164.67,112 -269.97,112l-1585.93 0c-105.3,0 -200.81,-42.84 -269.97,-112 -69.16,-69.16 -112,-164.65 -112,-269.96l0 -1946.19c0,-105.28 42.84,-200.78 112.01,-269.97 69.21,-69.23 164.71,-112.12 269.96,-112.12l1585.93 0c105.25,0 200.76,42.89 269.97,112.12 69.17,69.19 112.01,164.69 112.01,269.97zm-1800.62 1512.54l909.54 0c22.36,0 42.42,10.4 56.77,27.21 13.6,15.94 22.02,37.71 22.02,61.51 0,23.8 -8.42,45.57 -22.02,61.5 -14.35,16.81 -34.42,27.21 -56.77,27.21l-909.54 0c-22.36,0 -42.43,-10.4 -56.78,-27.2 -13.6,-15.93 -22.02,-37.7 -22.02,-61.5 0,-23.81 8.42,-45.58 22.03,-61.51 14.35,-16.81 34.41,-27.21 56.78,-27.21zm1251.35 -289.59l-1251.35 0c-22.36,0 -42.43,-10.37 -56.79,-27.17 -13.6,-15.9 -22.01,-37.63 -22.01,-61.44 0,-23.81 8.42,-45.59 22.03,-61.53 14.35,-16.81 34.41,-27.22 56.78,-27.22l1251.35 0c22.37,0 42.43,10.41 56.78,27.22 13.61,15.94 22.03,37.72 22.03,61.53 0,23.82 -8.41,45.55 -22.01,61.44 -14.36,16.8 -34.43,27.17 -56.8,27.17zm0 -466.96l-1251.35 0c-22.36,0 -42.43,-10.41 -56.78,-27.22 -13.61,-15.94 -22.03,-37.72 -22.03,-61.53 0,-23.81 8.42,-45.59 22.03,-61.53 14.35,-16.81 34.41,-27.22 56.78,-27.22l1251.35 0c22.37,0 42.43,10.41 56.78,27.22 13.61,15.94 22.03,37.72 22.03,61.53 0,23.81 -8.42,45.59 -22.03,61.53 -14.35,16.81 -34.41,27.22 -56.78,27.22zm0 -467.1l-1251.35 0c-22.36,0 -42.43,-10.37 -56.79,-27.17 -13.6,-15.9 -22.01,-37.63 -22.01,-61.44 0,-23.81 8.42,-45.59 22.03,-61.53 14.35,-16.81 34.41,-27.22 56.78,-27.22l1251.35 0c22.37,0 42.43,10.41 56.78,27.22 13.61,15.94 22.03,37.72 22.03,61.53 0,23.82 -8.41,45.55 -22.01,61.44 -14.36,16.8 -34.43,27.17 -56.8,27.17zm743.35 -7.09l0 -184.73 28.57 11.42c71.35,28.52 132.23,78.11 174.91,141.02 41.46,61.12 65.74,134.72 65.74,213.69l0 1946.29c0,105.2 -42.88,200.62 -112.08,269.77 -69.19,69.13 -164.67,111.94 -269.9,111.94l-1586.03 0c-78.98,0 -152.57,-24.22 -213.69,-65.65 -62.85,-42.6 -112.41,-103.4 -140.93,-174.73l-11.43 -28.57 195.07 0 6.27 8.46c18.98,25.63 43.88,46.74 72.68,61.27 27.58,13.91 58.85,21.78 92.03,21.78l1586.03 0c56.37,0 107.55,-22.94 144.61,-59.95 36.99,-36.95 59.94,-88 59.94,-144.32l0 -1946.29c0,-33.22 -7.87,-64.53 -21.84,-92.13 -14.53,-28.72 -35.66,-53.55 -61.39,-72.49l-8.55 -6.29 0 -10.47zm-2366.52 -281.81l0 1946.19c0,56.39 22.94,107.52 59.97,144.56 37.03,37.03 88.17,59.97 144.56,59.97l1585.93 0c56.39,0 107.52,-22.94 144.56,-59.97 37.03,-37.03 59.97,-88.17 59.97,-144.56l0 -1946.19c0,-56.41 -22.94,-107.56 -59.97,-144.59l0 -0.08c-36.98,-37 -88.12,-59.91 -144.56,-59.91l-1585.93 0c-56.44,0 -107.57,22.91 -144.56,59.91l0 0.08c-37.03,37.04 -59.97,88.19 -59.97,144.59z"/>
 </g>
</svg>
