<?xml version="1.0" encoding="UTF-8"?>
<!DOCTYPE svg PUBLIC "-//W3C//DTD SVG 1.1//EN" "http://www.w3.org/Graphics/SVG/1.1/DTD/svg11.dtd">
<!-- Creator: CorelDRAW 2019 (64-Bit) -->
<svg xmlns="http://www.w3.org/2000/svg" xml:space="preserve" width="5.36666in" height="5.36666in" version="1.1" style="shape-rendering:geometricPrecision; text-rendering:geometricPrecision; image-rendering:optimizeQuality; fill-rule:evenodd; clip-rule:evenodd"
viewBox="0 0 5366.66 5366.66"
 xmlns:xlink="http://www.w3.org/1999/xlink"
 xmlns:xodm="http://www.corel.com/coreldraw/odm/2003">
 <defs>
  <style type="text/css">
   <![CDATA[
    .fil0 {fill:#7DBA7D}
   ]]>
  </style>
 </defs>
 <g id="Layer_x0020_1">
  <metadata id="CorelCorpID_0Corel-Layer"/>
  <g id="_2404582924976">
   <path class="fil0" d="M1016.67 16.67l-555.56 0c-245.42,-0.01 -444.45,199.02 -444.45,444.44l0 555.56c-0,245.41 199.02,444.44 444.44,444.44l555.56 0.01c245.41,-0.01 444.44,-199.04 444.44,-444.45l0 -555.55c-0,-245.43 -199.03,-444.45 -444.45,-444.45l0 0.01zm0 1000l-555.56 0 0 -555.56 555.56 0 0 555.56z"/>
   <path class="fil0" d="M2961.11 16.67l-555.56 0c-245.42,-0.01 -444.45,199.02 -444.45,444.44l0 555.56c-0,245.41 199.02,444.44 444.44,444.44l555.56 0.01c245.41,-0.01 444.44,-199.04 444.44,-444.45l0 -555.55c-0,-245.43 -199.03,-444.45 -444.45,-444.45l0 0.01zm0 1000l-555.56 0 0 -555.56 555.56 0 0 555.56z"/>
   <path class="fil0" d="M1016.67 1961.12l-555.56 0c-245.42,-0.01 -444.45,199.02 -444.45,444.44l0 555.56c-0,245.41 199.02,444.44 444.44,444.44l555.56 0.01c245.41,-0.01 444.44,-199.04 444.44,-444.45l0 -555.55c-0,-245.43 -199.03,-444.45 -444.45,-444.45l0 0.01zm0 1000l-555.56 0 0 -555.56 555.56 0 0 555.56z"/>
   <path class="fil0" d="M2961.11 1961.12l-555.56 0c-245.42,-0.01 -444.45,199.02 -444.45,444.44l0 555.56c-0,245.41 199.02,444.44 444.44,444.44l555.56 0.01c245.41,-0.01 444.44,-199.04 444.44,-444.45l0 -555.55c-0,-245.43 -199.03,-444.45 -444.45,-444.45l0 0.01zm0 1000l-555.56 0 0 -555.56 555.56 0 0 555.56z"/>
   <path class="fil0" d="M1016.67 3905.55l-555.56 0c-245.42,-0.01 -444.45,199.02 -444.45,444.44l0 555.56c-0,245.41 199.02,444.44 444.44,444.44l555.56 0.01c245.41,-0.01 444.44,-199.04 444.44,-444.45l0 -555.55c-0,-245.43 -199.03,-444.45 -444.45,-444.45l0 0.01zm0 1000l-555.56 0 0 -555.56 555.56 0 0 555.56z"/>
   <path class="fil0" d="M2961.11 3905.55l-555.56 0c-245.42,-0.01 -444.45,199.02 -444.45,444.44l0 555.56c-0,245.41 199.02,444.44 444.44,444.44l555.56 0.01c245.41,-0.01 444.44,-199.04 444.44,-444.45l0 -555.55c-0,-245.43 -199.03,-444.45 -444.45,-444.45l0 0.01zm0 1000l-555.56 0 0 -555.56 555.56 0 0 555.56z"/>
   <path class="fil0" d="M4905.55 16.67l-555.56 0c-245.42,-0.01 -444.45,199.02 -444.45,444.44l0 555.56c-0,245.41 199.02,444.44 444.44,444.44l555.56 0.01c245.41,-0.01 444.44,-199.04 444.44,-444.45l0 -555.55c-0,-245.43 -199.03,-444.45 -444.45,-444.45l0 0.01zm0 1000l-555.56 0 0 -555.56 555.56 0 0 555.56z"/>
   <path class="fil0" d="M4905.55 1961.12l-555.56 0c-245.42,-0.01 -444.45,199.02 -444.45,444.44l0 555.56c-0,245.41 199.02,444.44 444.44,444.44l555.56 0.01c245.41,-0.01 444.44,-199.04 444.44,-444.45l0 -555.55c-0,-245.43 -199.03,-444.45 -444.45,-444.45l0 0.01zm0 1000l-555.56 0 0 -555.56 555.56 0 0 555.56z"/>
  </g>
 </g>
</svg>
